<svg width="200" height="205" viewBox="0 0 200 205" fill="none" xmlns="http://www.w3.org/2000/svg">
<g id="loader_icon 1" clip-path="url(#clip0)">
<path id="Vector" d="M177.385 155.064C175.265 155.721 173.145 156.378 170.318 156.378C166.078 157.035 161.131 156.378 155.477 157.035C149.823 157.692 143.463 159.006 137.102 162.292C131.449 165.577 127.208 169.519 123.675 172.804C118.728 178.718 115.901 183.974 113.074 187.26C111.661 189.231 110.247 189.888 108.127 191.202C106.714 191.859 105.3 192.516 102.474 192.516V107.099L183.746 150.465C181.625 152.436 179.505 153.75 177.385 155.064V155.064ZM97.5265 193.83C93.9929 193.173 91.8728 192.516 90.4594 191.202C89.0459 189.888 86.9258 188.574 85.5124 186.603C83.3922 183.317 80.5654 179.375 77.0318 175.433C73.4982 170.833 69.258 166.891 62.1908 162.949C56.5371 159.663 50.8834 158.349 45.9364 157.692C38.1625 156.378 31.8021 157.035 26.8551 156.378L20.4947 154.407C19.0813 153.75 17.6678 152.436 16.2544 150.465L96.8198 107.099V193.83H97.5265ZM12.0141 139.952C12.0141 137.981 12.7208 136.01 13.4276 133.381C14.841 130.096 17.6678 126.154 19.788 120.897C21.9081 115.641 24.0283 109.728 24.0283 102.5V101.843C24.0283 91.9872 19.788 84.7596 16.9611 78.8462L12.7208 70.9615C12.0141 68.3333 11.3074 66.3622 11.3074 64.391C11.3074 62.4199 12.0141 60.4487 12.7208 57.8205L93.2862 101.186L13.4276 145.865C12.7208 143.237 12.0141 141.266 12.0141 139.952V139.952ZM22.6148 49.9359C24.735 49.2788 26.8551 48.6218 29.682 48.6218C33.9223 47.9647 38.8693 48.6218 44.523 47.9647C49.47 46.6506 55.8304 45.3365 62.1908 42.0513C67.8445 38.766 72.0848 34.8237 75.6184 31.5385C80.5654 25.625 83.3922 20.3686 86.2191 17.0833C87.6325 15.1122 89.0459 14.4551 91.1661 13.141C92.5795 12.484 94.6997 11.8269 96.8198 11.8269V98.5577L16.2544 54.5353C18.3746 51.9071 20.4947 50.5929 22.6148 49.9359V49.9359ZM102.474 11.1699C106.007 11.1699 108.127 12.484 109.541 13.7981C110.954 15.1122 113.074 16.4263 114.488 18.3974C116.608 21.6827 119.435 25.625 122.968 29.5673C126.502 34.1667 130.742 38.109 137.809 42.0513C143.463 45.3365 149.117 46.6506 154.77 47.3077C162.544 47.9647 168.905 47.9647 173.852 48.6218L180.212 50.5929C181.625 51.25 183.039 52.5641 184.452 54.5353L103.887 97.9006V11.1699H102.474ZM187.986 65.0481C187.986 67.0192 187.279 68.9904 186.572 71.6186C185.159 74.9038 182.332 78.8462 180.212 84.1026C178.092 89.359 175.972 95.2724 175.972 102.5V103.814C175.972 113.67 179.505 120.897 183.039 126.811L187.279 134.696C187.986 137.324 188.693 139.295 188.693 141.266C188.693 143.237 187.986 145.208 187.279 147.179L106.714 103.814L185.866 59.1346C187.279 61.7628 187.986 63.734 187.986 65.0481V65.0481ZM190.813 116.298C188.693 112.356 187.279 107.756 187.279 103.157V102.5C187.279 95.9295 190.106 90.6731 192.933 84.7596C194.346 82.1314 196.466 79.5032 197.173 76.218C198.587 72.9327 199.293 69.6474 199.293 65.7051C199.293 61.1058 197.88 56.5064 195.053 51.9071C191.519 46.6506 187.279 42.7083 182.332 40.7372C178.799 39.4231 175.265 38.766 171.731 38.109C166.784 37.4519 161.837 37.4519 156.89 37.4519C151.943 36.7949 147.703 36.1378 143.463 33.5096C139.223 31.5385 136.396 28.9103 133.569 25.625C130.035 19.7115 127.208 14.4551 122.261 9.19872C120.141 6.57051 117.314 3.94231 113.074 2.62821C109.541 0.657051 105.3 0 99.6467 0C92.5795 0 86.9258 1.3141 82.6855 4.59936C79.1519 6.57051 77.0318 9.19872 74.9117 11.8269C72.0848 15.7692 69.9647 19.7115 67.1378 22.9968C64.311 26.2821 61.4841 29.5673 56.5371 32.1955C52.2968 34.8237 48.0565 35.4808 43.8163 36.1378C37.4558 36.7949 31.0954 36.1378 24.0283 37.4519C20.4947 38.109 16.9611 39.4231 13.4276 42.0513C9.89399 44.0224 7.06714 47.3077 4.24028 51.25C1.41343 55.8494 0 61.1058 0 65.7051C0 69.6474 0.706714 72.9327 2.12014 76.218C4.24028 80.8173 7.06714 84.7596 9.18728 89.359C11.3074 93.3013 12.7208 97.9006 12.7208 103.157V103.814C12.7208 111.042 9.89399 115.641 7.06714 121.554C5.65371 124.183 3.53357 126.811 2.82686 130.096C1.41343 133.381 0.706714 136.667 0.706714 140.609C0.706714 145.208 2.12014 149.808 4.947 154.407C8.48057 159.663 12.7208 163.606 17.6678 165.577C21.2014 166.891 24.735 167.548 28.2686 168.205C33.2155 168.862 38.1625 168.862 43.1095 168.862C48.0565 169.519 52.2968 170.176 57.2438 172.804C61.4841 174.776 64.311 177.404 67.1378 180.689C70.6714 185.288 73.4982 190.545 78.4452 195.801C80.5654 198.429 83.3922 200.401 87.6325 202.372C91.1661 204.343 96.1131 205 101.06 205C108.127 205 113.781 203.029 118.021 200.401C121.555 198.429 123.675 195.801 125.795 193.173C128.622 189.231 131.449 185.288 134.276 182.003C137.102 178.718 139.929 175.433 144.876 172.804C149.117 170.833 152.65 169.519 156.89 168.862C163.251 168.205 169.611 168.862 176.678 167.548C180.212 166.891 183.746 165.577 187.279 163.606C190.813 161.635 193.64 158.349 196.466 154.407C199.293 149.808 200.707 144.551 200.707 140.609C200.707 136.667 200 133.381 198.587 130.096C195.053 124.183 192.933 120.24 190.813 116.298Z" fill="black"/>
</g>
<defs>
<clipPath id="clip0">
<rect width="200" height="205" fill="white"/>
</clipPath>
</defs>
</svg>
